<svg xmlns="http://www.w3.org/2000/svg" width="1200" height="720" viewBox="0 0 1200 720" role="img" aria-labelledby="title desc">
  <title id="title">GBrain system map preview</title>
  <desc id="desc">Preview diagram of page-first memory flow.</desc>
  <rect width="1200" height="720" fill="#fffaf2"/>
  <text x="70" y="95" font-family="PingFang SC, Noto Serif CJK SC, serif" font-size="44" font-weight="700" fill="#2b2118">跨境业务复盘记忆流</text>
  <g font-family="PingFang SC, Noto Serif CJK SC, serif" font-size="24" fill="#2b2118">
    <rect x="80" y="170" width="190" height="100" fill="#f0e1cf" stroke="#2b2118" stroke-width="2"/>
    <text x="118" y="230">业务信号</text>
    <rect x="350" y="170" width="190" height="100" fill="#f0e1cf" stroke="#2b2118" stroke-width="2"/>
    <text x="392" y="230">复盘 page</text>
    <rect x="620" y="170" width="190" height="100" fill="#f0e1cf" stroke="#2b2118" stroke-width="2"/>
    <text x="652" y="230">检索 + 关系</text>
    <rect x="890" y="170" width="190" height="100" fill="#f0e1cf" stroke="#2b2118" stroke-width="2"/>
    <text x="930" y="230">Agent 动作</text>
    <path d="M270 220 H350 M540 220 H620 M810 220 H890" stroke="#d85f2a" stroke-width="8" stroke-linecap="round"/>
    <rect x="210" y="420" width="240" height="110" fill="#eef5f3" stroke="#2f6f6d" stroke-width="2"/>
    <text x="250" y="485">compiled truth</text>
    <rect x="520" y="420" width="240" height="110" fill="#eef5f3" stroke="#2f6f6d" stroke-width="2"/>
    <text x="585" y="485">timeline</text>
    <path d="M445 270 C430 345, 360 365, 330 420" stroke="#2f6f6d" stroke-width="5" fill="none"/>
    <path d="M445 270 C510 345, 605 365, 640 420" stroke="#2f6f6d" stroke-width="5" fill="none"/>
  </g>
</svg>
